<svg width="28" height="28" viewBox="0 0 28 28" fill="none" xmlns="http://www.w3.org/2000/svg">
  <path
    d="M22.993 6.00781C23.4551 6.30066 23.8355 6.70563 24.099 7.18505C24.3625 7.66447 24.5004 8.20276 24.5 8.74981V19.2498C24.5 22.1498 22.15 24.4998 19.25 24.4998H8.74998C8.20256 24.5001 7.66395 24.3621 7.18421 24.0984C6.70446 23.8348 6.29916 23.4541 6.00598 22.9918L6.12798 22.9978L6.24998 22.9998H19.25C20.2445 22.9998 21.1984 22.6047 21.9016 21.9015C22.6049 21.1982 23 20.2444 23 19.2498V6.24981C22.9999 6.1691 22.9976 6.0884 22.993 6.00781ZM8.49998 13.4998C8.23476 13.4998 7.98041 13.6052 7.79287 13.7927C7.60534 13.9802 7.49998 14.2346 7.49998 14.4998C7.49998 14.765 7.60534 15.0194 7.79287 15.2069C7.98041 15.3945 8.23476 15.4998 8.49998 15.4998C8.7652 15.4998 9.01955 15.3945 9.20709 15.2069C9.39462 15.0194 9.49998 14.765 9.49998 14.4998C9.49998 14.2346 9.39462 13.9802 9.20709 13.7927C9.01955 13.6052 8.7652 13.4998 8.49998 13.4998Z"
    fill="black" />
  <path
    d="M18.75 3H6.25C5.38805 3 4.5614 3.34241 3.9519 3.9519C3.34241 4.5614 3 5.38805 3 6.25V18.75C3 19.1768 3.08406 19.5994 3.24739 19.9937C3.41072 20.388 3.65011 20.7463 3.9519 21.0481C4.25369 21.3499 4.61197 21.5893 5.00628 21.7526C5.40059 21.9159 5.8232 22 6.25 22H18.75C19.1768 22 19.5994 21.9159 19.9937 21.7526C20.388 21.5893 20.7463 21.3499 21.0481 21.0481C21.3499 20.7463 21.5893 20.388 21.7526 19.9937C21.9159 19.5994 22 19.1768 22 18.75V6.25C22 5.8232 21.9159 5.40059 21.7526 5.00628C21.5893 4.61197 21.3499 4.25369 21.0481 3.9519C20.7463 3.65011 20.388 3.41072 19.9937 3.24739C19.5994 3.08406 19.1768 3 18.75 3ZM6 14.5C6 13.837 6.26339 13.2011 6.73223 12.7322C7.20107 12.2634 7.83696 12 8.5 12C9.16304 12 9.79893 12.2634 10.2678 12.7322C10.7366 13.2011 11 13.837 11 14.5C11 15.163 10.7366 15.7989 10.2678 16.2678C9.79893 16.7366 9.16304 17 8.5 17C7.83696 17 7.20107 16.7366 6.73223 16.2678C6.26339 15.7989 6 15.163 6 14.5ZM13 14.25C13 14.0511 13.079 13.8603 13.2197 13.7197C13.3603 13.579 13.5511 13.5 13.75 13.5H18.75C18.9489 13.5 19.1397 13.579 19.2803 13.7197C19.421 13.8603 19.5 14.0511 19.5 14.25C19.5 14.4489 19.421 14.6397 19.2803 14.7803C19.1397 14.921 18.9489 15 18.75 15H13.75C13.5511 15 13.3603 14.921 13.2197 14.7803C13.079 14.6397 13 14.4489 13 14.25ZM6 9.25C6 9.05109 6.07902 8.86032 6.21967 8.71967C6.36032 8.57902 6.55109 8.5 6.75 8.5H18.75C18.9489 8.5 19.1397 8.57902 19.2803 8.71967C19.421 8.86032 19.5 9.05109 19.5 9.25C19.5 9.44891 19.421 9.63968 19.2803 9.78033C19.1397 9.92098 18.9489 10 18.75 10H6.75C6.55109 10 6.36032 9.92098 6.21967 9.78033C6.07902 9.63968 6 9.44891 6 9.25Z"
    fill="black" />
</svg>